<svg xmlns="http://www.w3.org/2000/svg" width="1200" height="700" viewBox="0 0 1200 700" role="img" aria-label="Urban Retail Pilot">
  <defs>
    <linearGradient id="bg" x1="0" y1="0" x2="1" y2="1">
      <stop offset="0%" stop-color="#7c2d12"/>
      <stop offset="100%" stop-color="#431407"/>
    </linearGradient>
    <linearGradient id="panel" x1="0" y1="0" x2="1" y2="1">
      <stop offset="0%" stop-color="#ffffff" stop-opacity="0.28"/>
      <stop offset="100%" stop-color="#ffffff" stop-opacity="0.08"/>
    </linearGradient>
    <pattern id="grid" width="40" height="40" patternUnits="userSpaceOnUse">
      <path d="M 40 0 L 0 0 0 40" fill="none" stroke="#ffffff" stroke-opacity="0.18" stroke-width="1"/>
    </pattern>
  </defs>
  <rect width="1200" height="700" fill="url(#bg)"/>
  <rect width="1200" height="700" fill="url(#grid)"/>

  <rect x="46" y="48" rx="24" ry="24" width="690" height="360" fill="url(#panel)" stroke="#ffffff" stroke-opacity="0.25"/>
  <rect x="772" y="48" rx="24" ry="24" width="382" height="360" fill="url(#panel)" stroke="#ffffff" stroke-opacity="0.2"/>

  <g opacity="0.9" fill="none" stroke="#ffffff" stroke-width="7" stroke-linecap="round" stroke-linejoin="round">
    <path d="M98 118 L290 118 L290 202 L462 202 L462 328 L656 328"/>
    <path d="M140 252 L250 252 M330 252 L422 252 M502 252 L618 252"/>
    <path d="M140 318 L250 318 M330 318 L422 318"/>
  </g>

  <g transform="translate(915 232)">
    <circle cx="0" cy="0" r="88" fill="#ffffff" fill-opacity="0.22"/>
    <path d="M0 -74 C44 -74 68 -38 68 -4 C68 44 32 84 0 126 C-32 84 -68 44 -68 -4 C-68 -38 -44 -74 0 -74 Z" fill="#fdba74"/>
    <circle cx="0" cy="-6" r="28" fill="#ffffff" fill-opacity="0.92"/>
  </g>

  <text x="58" y="514" fill="#ffffff" font-family="Arial, Helvetica, sans-serif" font-size="44" font-weight="700">Urban Retail Pilot</text>
  <text x="58" y="560" fill="#ffffff" font-family="Arial, Helvetica, sans-serif" font-size="28" opacity="0.9">Backroom sort and staging</text>
  <text x="58" y="618" fill="#ffffff" font-family="Arial, Helvetica, sans-serif" font-size="22" opacity="0.8">Digital Twin Placeholder</text>
</svg>
