<svg width="1600" height="900" viewBox="0 0 1600 900" fill="none" xmlns="http://www.w3.org/2000/svg" role="img" aria-labelledby="title desc">
  <title id="title">Qualification capture-to-deployment pipeline</title>
  <desc id="desc">Visualization showing a real facility moving through qualification, review, and downstream deployment prep.</desc>

  <defs>
    <linearGradient id="bgGrad" x1="0" y1="0" x2="1600" y2="900" gradientUnits="userSpaceOnUse">
      <stop stop-color="#F8FAFC"/>
      <stop offset="0.5" stop-color="#EFF6FF"/>
      <stop offset="1" stop-color="#F0FDFA"/>
    </linearGradient>

    <linearGradient id="floorGrad" x1="200" y1="600" x2="1400" y2="400" gradientUnits="userSpaceOnUse">
      <stop stop-color="#E0E7FF" stop-opacity="0.6"/>
      <stop offset="1" stop-color="#CFFAFE" stop-opacity="0.3"/>
    </linearGradient>

    <linearGradient id="splatGrad1" x1="0" y1="0" x2="1" y2="1">
      <stop stop-color="#818CF8"/>
      <stop offset="1" stop-color="#6366F1"/>
    </linearGradient>

    <linearGradient id="splatGrad2" x1="0" y1="0" x2="1" y2="1">
      <stop stop-color="#22D3EE"/>
      <stop offset="1" stop-color="#06B6D4"/>
    </linearGradient>

    <linearGradient id="splatGrad3" x1="0" y1="0" x2="1" y2="1">
      <stop stop-color="#A78BFA"/>
      <stop offset="1" stop-color="#7C3AED"/>
    </linearGradient>

    <linearGradient id="scanLine" x1="0" y1="0" x2="0" y2="1">
      <stop stop-color="#6366F1" stop-opacity="0"/>
      <stop offset="0.5" stop-color="#6366F1" stop-opacity="0.5"/>
      <stop offset="1" stop-color="#6366F1" stop-opacity="0"/>
    </linearGradient>

    <linearGradient id="robotBody" x1="0" y1="0" x2="0" y2="1">
      <stop stop-color="#1E293B"/>
      <stop offset="1" stop-color="#0F172A"/>
    </linearGradient>

    <linearGradient id="pipelineBar" x1="0" y1="0" x2="1" y2="0">
      <stop stop-color="#6366F1"/>
      <stop offset="0.5" stop-color="#8B5CF6"/>
      <stop offset="1" stop-color="#06B6D4"/>
    </linearGradient>

    <filter id="glow" x="-50%" y="-50%" width="200%" height="200%">
      <feGaussianBlur in="SourceGraphic" stdDeviation="8" result="blur"/>
      <feMerge>
        <feMergeNode in="blur"/>
        <feMergeNode in="SourceGraphic"/>
      </feMerge>
    </filter>

    <filter id="softGlow" x="-50%" y="-50%" width="200%" height="200%">
      <feGaussianBlur in="SourceGraphic" stdDeviation="3"/>
    </filter>

    <filter id="shadow" x="-10%" y="-10%" width="120%" height="130%">
      <feDropShadow dx="0" dy="6" stdDeviation="12" flood-color="#0F172A" flood-opacity="0.12"/>
    </filter>

    <clipPath id="sceneClip">
      <rect x="100" y="72" width="1400" height="756" rx="28"/>
    </clipPath>
  </defs>

  <!-- Background -->
  <rect width="1600" height="900" rx="32" fill="url(#bgGrad)"/>

  <!-- Ambient orbs -->
  <circle cx="180" cy="120" r="200" fill="#C7D2FE" fill-opacity="0.2"/>
  <circle cx="1450" cy="760" r="240" fill="#A5F3FC" fill-opacity="0.15"/>
  <circle cx="800" cy="100" r="160" fill="#DDD6FE" fill-opacity="0.15"/>

  <!-- Main scene container -->
  <g filter="url(#shadow)">
    <rect x="100" y="72" width="1400" height="756" rx="28" fill="#FFFFFF"/>
  </g>

  <g clip-path="url(#sceneClip)">
    <!-- Scene background -->
    <rect x="100" y="72" width="1400" height="756" fill="#FAFBFF"/>

    <!-- Perspective grid floor -->
    <g opacity="0.35">
      <!-- Horizontal perspective lines -->
      <line x1="100" y1="520" x2="1500" y2="520" stroke="#CBD5E1" stroke-width="1"/>
      <line x1="100" y1="560" x2="1500" y2="560" stroke="#CBD5E1" stroke-width="1"/>
      <line x1="100" y1="608" x2="1500" y2="608" stroke="#CBD5E1" stroke-width="1"/>
      <line x1="100" y1="664" x2="1500" y2="664" stroke="#CBD5E1" stroke-width="1"/>
      <line x1="100" y1="730" x2="1500" y2="730" stroke="#CBD5E1" stroke-width="1"/>
      <line x1="100" y1="810" x2="1500" y2="810" stroke="#CBD5E1" stroke-width="1"/>

      <!-- Converging vertical lines -->
      <line x1="800" y1="260" x2="100" y2="828" stroke="#CBD5E1" stroke-width="1"/>
      <line x1="800" y1="260" x2="260" y2="828" stroke="#CBD5E1" stroke-width="1"/>
      <line x1="800" y1="260" x2="430" y2="828" stroke="#CBD5E1" stroke-width="1"/>
      <line x1="800" y1="260" x2="610" y2="828" stroke="#CBD5E1" stroke-width="1"/>
      <line x1="800" y1="260" x2="800" y2="828" stroke="#CBD5E1" stroke-width="1"/>
      <line x1="800" y1="260" x2="990" y2="828" stroke="#CBD5E1" stroke-width="1"/>
      <line x1="800" y1="260" x2="1170" y2="828" stroke="#CBD5E1" stroke-width="1"/>
      <line x1="800" y1="260" x2="1340" y2="828" stroke="#CBD5E1" stroke-width="1"/>
      <line x1="800" y1="260" x2="1500" y2="828" stroke="#CBD5E1" stroke-width="1"/>
    </g>

    <!-- Floor gradient overlay -->
    <rect x="100" y="480" width="1400" height="348" fill="url(#floorGrad)"/>

    <!-- 3D Gaussian splat point cloud - warehouse structure -->
    <!-- Back wall points (dense cluster) -->
    <g opacity="0.7">
      <!-- Left wall structure -->
      <circle cx="280" cy="280" r="4" fill="#818CF8" opacity="0.6"/>
      <circle cx="295" cy="268" r="3" fill="#A78BFA" opacity="0.5"/>
      <circle cx="272" cy="295" r="5" fill="#6366F1" opacity="0.4"/>
      <circle cx="310" cy="282" r="3.5" fill="#818CF8" opacity="0.55"/>
      <circle cx="265" cy="310" r="4" fill="#A78BFA" opacity="0.45"/>
      <circle cx="288" cy="322" r="3" fill="#6366F1" opacity="0.5"/>
      <circle cx="302" cy="308" r="4.5" fill="#818CF8" opacity="0.4"/>
      <circle cx="275" cy="340" r="3.5" fill="#A78BFA" opacity="0.55"/>
      <circle cx="292" cy="355" r="4" fill="#6366F1" opacity="0.45"/>
      <circle cx="308" cy="338" r="3" fill="#818CF8" opacity="0.5"/>
      <circle cx="268" cy="370" r="4.5" fill="#A78BFA" opacity="0.4"/>
      <circle cx="285" cy="385" r="3.5" fill="#6366F1" opacity="0.55"/>
      <circle cx="300" cy="372" r="4" fill="#818CF8" opacity="0.45"/>
      <circle cx="278" cy="400" r="3" fill="#A78BFA" opacity="0.5"/>
      <circle cx="295" cy="415" r="4.5" fill="#6366F1" opacity="0.4"/>
      <circle cx="310" cy="398" r="3.5" fill="#818CF8" opacity="0.55"/>
      <circle cx="270" cy="430" r="4" fill="#A78BFA" opacity="0.45"/>
      <circle cx="288" cy="445" r="3" fill="#6366F1" opacity="0.5"/>
      <circle cx="305" cy="428" r="4.5" fill="#818CF8" opacity="0.4"/>
      <circle cx="275" cy="460" r="3.5" fill="#A78BFA" opacity="0.55"/>

      <!-- Shelving unit 1 -->
      <circle cx="420" cy="290" r="5" fill="#6366F1" opacity="0.6"/>
      <circle cx="435" cy="278" r="4" fill="#818CF8" opacity="0.5"/>
      <circle cx="412" cy="305" r="5.5" fill="#A78BFA" opacity="0.45"/>
      <circle cx="445" cy="295" r="4" fill="#6366F1" opacity="0.55"/>
      <circle cx="428" cy="318" r="5" fill="#818CF8" opacity="0.4"/>
      <circle cx="440" cy="332" r="4.5" fill="#A78BFA" opacity="0.5"/>
      <circle cx="418" cy="345" r="4" fill="#6366F1" opacity="0.45"/>
      <circle cx="450" cy="310" r="3.5" fill="#818CF8" opacity="0.55"/>
      <circle cx="408" cy="358" r="5" fill="#A78BFA" opacity="0.4"/>
      <circle cx="432" cy="370" r="4" fill="#6366F1" opacity="0.5"/>
      <circle cx="445" cy="355" r="4.5" fill="#818CF8" opacity="0.45"/>
      <circle cx="420" cy="388" r="5" fill="#A78BFA" opacity="0.55"/>
      <circle cx="438" cy="400" r="4" fill="#6366F1" opacity="0.4"/>
      <circle cx="410" cy="415" r="4.5" fill="#818CF8" opacity="0.5"/>
      <circle cx="448" cy="380" r="3.5" fill="#A78BFA" opacity="0.45"/>

      <!-- Shelving unit 2 -->
      <circle cx="580" cy="300" r="5" fill="#22D3EE" opacity="0.55"/>
      <circle cx="595" cy="288" r="4" fill="#06B6D4" opacity="0.45"/>
      <circle cx="572" cy="315" r="5.5" fill="#67E8F9" opacity="0.4"/>
      <circle cx="605" cy="302" r="4" fill="#22D3EE" opacity="0.5"/>
      <circle cx="588" cy="328" r="5" fill="#06B6D4" opacity="0.4"/>
      <circle cx="600" cy="342" r="4.5" fill="#67E8F9" opacity="0.5"/>
      <circle cx="578" cy="355" r="4" fill="#22D3EE" opacity="0.45"/>
      <circle cx="610" cy="320" r="3.5" fill="#06B6D4" opacity="0.55"/>
      <circle cx="568" cy="368" r="5" fill="#67E8F9" opacity="0.4"/>
      <circle cx="592" cy="380" r="4" fill="#22D3EE" opacity="0.5"/>
      <circle cx="605" cy="365" r="4.5" fill="#06B6D4" opacity="0.45"/>
      <circle cx="580" cy="398" r="5" fill="#67E8F9" opacity="0.55"/>
      <circle cx="598" cy="410" r="4" fill="#22D3EE" opacity="0.4"/>

      <!-- Central area - sparse points (open floor) -->
      <circle cx="720" cy="340" r="3" fill="#818CF8" opacity="0.3"/>
      <circle cx="760" cy="360" r="2.5" fill="#A78BFA" opacity="0.25"/>
      <circle cx="800" cy="350" r="3" fill="#6366F1" opacity="0.2"/>
      <circle cx="840" cy="370" r="2.5" fill="#818CF8" opacity="0.25"/>
      <circle cx="700" cy="380" r="2" fill="#A78BFA" opacity="0.2"/>
      <circle cx="780" cy="390" r="2.5" fill="#6366F1" opacity="0.25"/>
      <circle cx="820" cy="400" r="3" fill="#818CF8" opacity="0.2"/>
      <circle cx="740" cy="410" r="2" fill="#A78BFA" opacity="0.25"/>

      <!-- Shelving unit 3 -->
      <circle cx="960" cy="295" r="5" fill="#A78BFA" opacity="0.55"/>
      <circle cx="975" cy="283" r="4" fill="#7C3AED" opacity="0.45"/>
      <circle cx="952" cy="310" r="5.5" fill="#C4B5FD" opacity="0.4"/>
      <circle cx="985" cy="300" r="4" fill="#A78BFA" opacity="0.5"/>
      <circle cx="968" cy="325" r="5" fill="#7C3AED" opacity="0.4"/>
      <circle cx="980" cy="338" r="4.5" fill="#C4B5FD" opacity="0.5"/>
      <circle cx="958" cy="352" r="4" fill="#A78BFA" opacity="0.45"/>
      <circle cx="990" cy="318" r="3.5" fill="#7C3AED" opacity="0.55"/>
      <circle cx="948" cy="365" r="5" fill="#C4B5FD" opacity="0.4"/>
      <circle cx="972" cy="378" r="4" fill="#A78BFA" opacity="0.5"/>
      <circle cx="985" cy="362" r="4.5" fill="#7C3AED" opacity="0.45"/>
      <circle cx="960" cy="395" r="5" fill="#C4B5FD" opacity="0.55"/>
      <circle cx="978" cy="408" r="4" fill="#A78BFA" opacity="0.4"/>

      <!-- Shelving unit 4 -->
      <circle cx="1120" cy="285" r="5" fill="#6366F1" opacity="0.55"/>
      <circle cx="1135" cy="273" r="4" fill="#818CF8" opacity="0.45"/>
      <circle cx="1112" cy="300" r="5.5" fill="#A78BFA" opacity="0.4"/>
      <circle cx="1145" cy="290" r="4" fill="#6366F1" opacity="0.5"/>
      <circle cx="1128" cy="315" r="5" fill="#818CF8" opacity="0.4"/>
      <circle cx="1140" cy="328" r="4.5" fill="#A78BFA" opacity="0.5"/>
      <circle cx="1118" cy="342" r="4" fill="#6366F1" opacity="0.45"/>
      <circle cx="1150" cy="308" r="3.5" fill="#818CF8" opacity="0.55"/>
      <circle cx="1108" cy="355" r="5" fill="#A78BFA" opacity="0.4"/>
      <circle cx="1132" cy="368" r="4" fill="#6366F1" opacity="0.5"/>
      <circle cx="1145" cy="352" r="4.5" fill="#818CF8" opacity="0.45"/>
      <circle cx="1120" cy="385" r="5" fill="#A78BFA" opacity="0.55"/>
      <circle cx="1138" cy="398" r="4" fill="#6366F1" opacity="0.4"/>

      <!-- Right wall structure -->
      <circle cx="1300" cy="280" r="4" fill="#22D3EE" opacity="0.55"/>
      <circle cx="1315" cy="268" r="3" fill="#06B6D4" opacity="0.45"/>
      <circle cx="1292" cy="295" r="5" fill="#67E8F9" opacity="0.4"/>
      <circle cx="1320" cy="285" r="3.5" fill="#22D3EE" opacity="0.5"/>
      <circle cx="1285" cy="310" r="4" fill="#06B6D4" opacity="0.4"/>
      <circle cx="1308" cy="322" r="3" fill="#67E8F9" opacity="0.5"/>
      <circle cx="1322" cy="308" r="4.5" fill="#22D3EE" opacity="0.45"/>
      <circle cx="1295" cy="340" r="3.5" fill="#06B6D4" opacity="0.55"/>
      <circle cx="1312" cy="355" r="4" fill="#67E8F9" opacity="0.4"/>
      <circle cx="1328" cy="338" r="3" fill="#22D3EE" opacity="0.5"/>
      <circle cx="1288" cy="370" r="4.5" fill="#06B6D4" opacity="0.45"/>
      <circle cx="1305" cy="385" r="3.5" fill="#67E8F9" opacity="0.55"/>
      <circle cx="1320" cy="372" r="4" fill="#22D3EE" opacity="0.4"/>
      <circle cx="1298" cy="400" r="3" fill="#06B6D4" opacity="0.5"/>
      <circle cx="1315" cy="415" r="4.5" fill="#67E8F9" opacity="0.45"/>
      <circle cx="1330" cy="398" r="3.5" fill="#22D3EE" opacity="0.55"/>
      <circle cx="1290" cy="430" r="4" fill="#06B6D4" opacity="0.4"/>
      <circle cx="1308" cy="445" r="3" fill="#67E8F9" opacity="0.5"/>
      <circle cx="1325" cy="428" r="4.5" fill="#22D3EE" opacity="0.45"/>

      <!-- Ceiling points -->
      <circle cx="400" cy="200" r="3" fill="#CBD5E1" opacity="0.3"/>
      <circle cx="550" cy="210" r="2.5" fill="#CBD5E1" opacity="0.25"/>
      <circle cx="700" cy="195" r="3" fill="#CBD5E1" opacity="0.3"/>
      <circle cx="850" cy="205" r="2.5" fill="#CBD5E1" opacity="0.25"/>
      <circle cx="1000" cy="198" r="3" fill="#CBD5E1" opacity="0.3"/>
      <circle cx="1150" cy="208" r="2.5" fill="#CBD5E1" opacity="0.25"/>
      <circle cx="1300" cy="200" r="3" fill="#CBD5E1" opacity="0.2"/>

      <!-- Floor points -->
      <circle cx="350" cy="490" r="3.5" fill="#818CF8" opacity="0.25"/>
      <circle cx="500" cy="505" r="3" fill="#A78BFA" opacity="0.2"/>
      <circle cx="650" cy="495" r="3.5" fill="#6366F1" opacity="0.25"/>
      <circle cx="800" cy="510" r="3" fill="#818CF8" opacity="0.2"/>
      <circle cx="950" cy="498" r="3.5" fill="#A78BFA" opacity="0.25"/>
      <circle cx="1100" cy="508" r="3" fill="#6366F1" opacity="0.2"/>
      <circle cx="1250" cy="492" r="3.5" fill="#22D3EE" opacity="0.25"/>
    </g>

    <!-- Animated scan plane sweeping through the scene -->
    <rect x="100" y="160" width="8" height="520" fill="url(#scanLine)" opacity="0.6">
      <animate attributeName="x" values="100;1500;100" dur="6s" repeatCount="indefinite"/>
    </rect>

    <!-- Robot navigating the scene -->
    <g>
      <animateTransform attributeName="transform" type="translate" values="0,0; 80,-10; 160,-5; 240,-15; 160,-5; 80,-10; 0,0" dur="10s" repeatCount="indefinite"/>

      <!-- Robot shadow -->
      <ellipse cx="740" cy="560" rx="32" ry="8" fill="#0F172A" opacity="0.1"/>

      <!-- Robot body -->
      <rect x="714" y="510" width="52" height="38" rx="8" fill="url(#robotBody)"/>

      <!-- Robot head/sensor array -->
      <rect x="720" y="498" width="40" height="16" rx="4" fill="#1E293B"/>

      <!-- Sensor eye -->
      <circle cx="740" cy="506" r="5" fill="#22D3EE"/>
      <circle cx="740" cy="506" r="3" fill="#67E8F9">
        <animate attributeName="opacity" values="1;0.4;1" dur="2s" repeatCount="indefinite"/>
      </circle>

      <!-- Wheels -->
      <circle cx="722" cy="552" r="6" fill="#334155"/>
      <circle cx="758" cy="552" r="6" fill="#334155"/>

      <!-- Sensor cone -->
      <g opacity="0.15">
        <path d="M740 506 L660 380 L820 380 Z" fill="#22D3EE"/>
      </g>

      <!-- Scan lines from robot -->
      <g opacity="0.3">
        <line x1="740" y1="506" x2="660" y2="380" stroke="#22D3EE" stroke-width="1" stroke-dasharray="4 4">
          <animate attributeName="stroke-opacity" values="0.3;0.6;0.3" dur="1.5s" repeatCount="indefinite"/>
        </line>
        <line x1="740" y1="506" x2="740" y2="370" stroke="#22D3EE" stroke-width="1" stroke-dasharray="4 4">
          <animate attributeName="stroke-opacity" values="0.3;0.6;0.3" dur="1.5s" begin="0.3s" repeatCount="indefinite"/>
        </line>
        <line x1="740" y1="506" x2="820" y2="380" stroke="#22D3EE" stroke-width="1" stroke-dasharray="4 4">
          <animate attributeName="stroke-opacity" values="0.3;0.6;0.3" dur="1.5s" begin="0.6s" repeatCount="indefinite"/>
        </line>
      </g>
    </g>

    <!-- Floating data particles being generated -->
    <g>
      <circle cx="680" cy="400" r="2" fill="#6366F1" opacity="0.6">
        <animate attributeName="cy" values="400;320;280" dur="3s" repeatCount="indefinite"/>
        <animate attributeName="opacity" values="0;0.6;0" dur="3s" repeatCount="indefinite"/>
      </circle>
      <circle cx="760" cy="410" r="2" fill="#22D3EE" opacity="0.6">
        <animate attributeName="cy" values="410;330;290" dur="3s" begin="0.5s" repeatCount="indefinite"/>
        <animate attributeName="opacity" values="0;0.6;0" dur="3s" begin="0.5s" repeatCount="indefinite"/>
      </circle>
      <circle cx="820" cy="405" r="2" fill="#A78BFA" opacity="0.6">
        <animate attributeName="cy" values="405;325;285" dur="3s" begin="1s" repeatCount="indefinite"/>
        <animate attributeName="opacity" values="0;0.6;0" dur="3s" begin="1s" repeatCount="indefinite"/>
      </circle>
      <circle cx="710" cy="395" r="2" fill="#818CF8" opacity="0.6">
        <animate attributeName="cy" values="395;315;275" dur="3s" begin="1.5s" repeatCount="indefinite"/>
        <animate attributeName="opacity" values="0;0.6;0" dur="3s" begin="1.5s" repeatCount="indefinite"/>
      </circle>
      <circle cx="790" cy="415" r="2" fill="#06B6D4" opacity="0.6">
        <animate attributeName="cy" values="415;335;295" dur="3s" begin="2s" repeatCount="indefinite"/>
        <animate attributeName="opacity" values="0;0.6;0" dur="3s" begin="2s" repeatCount="indefinite"/>
      </circle>
    </g>

    <!-- Top-left: Pipeline stage badge -->
    <g>
      <rect x="140" y="100" width="180" height="44" rx="12" fill="#0F172A"/>
      <circle cx="164" cy="122" r="6" fill="#22D3EE">
        <animate attributeName="opacity" values="1;0.4;1" dur="2s" repeatCount="indefinite"/>
      </circle>
      <text x="180" y="128" fill="#E2E8F0" font-family="system-ui, -apple-system, sans-serif" font-size="15" font-weight="700" letter-spacing="1.2">RECONSTRUCTING</text>
    </g>

    <!-- Top-right: Completion indicator -->
    <g>
      <rect x="1240" y="100" width="220" height="44" rx="12" fill="#ECFDF5"/>
      <text x="1264" y="128" fill="#059669" font-family="system-ui, -apple-system, sans-serif" font-size="14" font-weight="700" letter-spacing="0.8">92% COMPLETE</text>
      <!-- Mini progress bar -->
      <rect x="1264" y="134" width="160" height="4" rx="2" fill="#D1FAE5"/>
      <rect x="1264" y="134" width="147" height="4" rx="2" fill="#10B981">
        <animate attributeName="width" values="130;147;130" dur="4s" repeatCount="indefinite"/>
      </rect>
    </g>

    <!-- Bottom pipeline tracker -->
    <g>
      <rect x="200" y="720" width="1200" height="72" rx="16" fill="#FFFFFF" fill-opacity="0.92"/>
      <rect x="200" y="720" width="1200" height="72" rx="16" stroke="#E2E8F0" stroke-width="1"/>

      <!-- Pipeline steps -->
      <!-- Step 1: Capture - completed -->
      <circle cx="340" cy="748" r="12" fill="#10B981"/>
      <path d="M334 748 L338 752 L346 744" stroke="white" stroke-width="2" stroke-linecap="round" stroke-linejoin="round"/>
      <text x="318" y="775" fill="#334155" font-family="system-ui, -apple-system, sans-serif" font-size="12" font-weight="600" letter-spacing="0.5">CAPTURE</text>

      <!-- Connector line 1 -->
      <line x1="365" y1="748" x2="530" y2="748" stroke="#10B981" stroke-width="2"/>

      <!-- Step 2: Reconstruct - in progress -->
      <circle cx="555" cy="748" r="12" fill="#6366F1"/>
      <circle cx="555" cy="748" r="5" fill="white">
        <animate attributeName="r" values="3;5;3" dur="1.5s" repeatCount="indefinite"/>
      </circle>
      <text x="518" y="775" fill="#334155" font-family="system-ui, -apple-system, sans-serif" font-size="12" font-weight="600" letter-spacing="0.5">RECONSTRUCT</text>

      <!-- Connector line 2 -->
      <line x1="580" y1="748" x2="745" y2="748" stroke="#E2E8F0" stroke-width="2" stroke-dasharray="6 4"/>

      <!-- Step 3: Fine-tune - pending -->
      <circle cx="770" cy="748" r="12" fill="none" stroke="#CBD5E1" stroke-width="2"/>
      <text x="740" y="775" fill="#94A3B8" font-family="system-ui, -apple-system, sans-serif" font-size="12" font-weight="600" letter-spacing="0.5">FINE-TUNE</text>

      <!-- Connector line 3 -->
      <line x1="795" y1="748" x2="960" y2="748" stroke="#E2E8F0" stroke-width="2" stroke-dasharray="6 4"/>

      <!-- Step 4: Evaluate - pending -->
      <circle cx="985" cy="748" r="12" fill="none" stroke="#CBD5E1" stroke-width="2"/>
      <text x="958" y="775" fill="#94A3B8" font-family="system-ui, -apple-system, sans-serif" font-size="12" font-weight="600" letter-spacing="0.5">EVALUATE</text>

      <!-- Connector line 4 -->
      <line x1="1010" y1="748" x2="1175" y2="748" stroke="#E2E8F0" stroke-width="2" stroke-dasharray="6 4"/>

      <!-- Step 5: Deploy - pending -->
      <circle cx="1200" cy="748" r="12" fill="none" stroke="#CBD5E1" stroke-width="2"/>
      <text x="1178" y="775" fill="#94A3B8" font-family="system-ui, -apple-system, sans-serif" font-size="12" font-weight="600" letter-spacing="0.5">DEPLOY</text>
    </g>

    <!-- Data metrics floating card -->
    <g>
      <rect x="1240" y="440" width="200" height="100" rx="12" fill="#FFFFFF" fill-opacity="0.95"/>
      <rect x="1240" y="440" width="200" height="100" rx="12" stroke="#E2E8F0" stroke-width="1"/>

      <text x="1264" y="468" fill="#64748B" font-family="system-ui, -apple-system, sans-serif" font-size="11" font-weight="600" letter-spacing="1">POINT DENSITY</text>
      <text x="1264" y="496" fill="#0F172A" font-family="system-ui, -apple-system, sans-serif" font-size="24" font-weight="700">2.4M</text>
      <text x="1340" y="496" fill="#64748B" font-family="system-ui, -apple-system, sans-serif" font-size="13">points</text>

      <rect x="1264" y="510" width="152" height="4" rx="2" fill="#EDE9FE"/>
      <rect x="1264" y="510" width="112" height="4" rx="2" fill="#8B5CF6"/>
      <text x="1264" y="528" fill="#8B5CF6" font-family="system-ui, -apple-system, sans-serif" font-size="11" font-weight="600">HIGH FIDELITY</text>
    </g>
  </g>
</svg>
