<svg width="1600" height="1000" viewBox="0 0 1600 1000" fill="none" xmlns="http://www.w3.org/2000/svg">
  <rect width="1600" height="1000" rx="42" fill="url(#bg)"/>
  <rect x="42" y="42" width="1516" height="916" rx="34" fill="#0F172A" stroke="#334155" stroke-width="2"/>

  <rect x="104" y="110" width="1392" height="780" rx="34" fill="#111827" stroke="#334155" stroke-width="2"/>
  <text x="156" y="180" fill="#F8FAFC" font-family="Inter, system-ui, sans-serif" font-size="34" font-weight="700">Custom program</text>
  <text x="1320" y="180" fill="#A5B4CC" font-family="Inter, system-ui, sans-serif" font-size="22" font-weight="600">private / exclusive / managed</text>

  <rect x="156" y="220" width="760" height="420" rx="28" fill="#1E293B"/>
  <image href="/thumbnails/warehouse-tote-pick-cell.png" x="178" y="242" width="716" height="376" preserveAspectRatio="xMidYMid slice"/>
  <rect x="178" y="242" width="716" height="376" rx="18" fill="url(#imageShade)"/>
  <rect x="280" y="322" width="290" height="182" rx="22" fill="none" stroke="#F59E0B" stroke-width="10" stroke-dasharray="22 18"/>
  <circle cx="570" cy="322" r="14" fill="#F59E0B"/>
  <text x="300" y="550" fill="#F8FAFC" font-family="Inter, system-ui, sans-serif" font-size="26" font-weight="700">Buyer-specific capture scope</text>

  <rect x="962" y="220" width="480" height="214" rx="28" fill="#F8FAFC"/>
  <text x="1004" y="278" fill="#0F172A" font-family="Inter, system-ui, sans-serif" font-size="28" font-weight="700">What changes here</text>
  <rect x="1004" y="302" width="142" height="12" rx="6" fill="#CBD5E1"/>
  <g fill="#334155" font-family="Inter, system-ui, sans-serif" font-size="24" font-weight="600">
    <text x="1036" y="360">New capture planning</text>
    <text x="1036" y="406">Managed model + data work</text>
  </g>
  <g fill="#0F766E">
    <circle cx="1012" cy="352" r="8"/>
    <circle cx="1012" cy="398" r="8"/>
  </g>

  <rect x="962" y="458" width="480" height="182" rx="28" fill="#1E293B" stroke="#334155" stroke-width="2"/>
  <rect x="1004" y="498" width="176" height="76" rx="18" fill="#0F172A" stroke="#475569" stroke-width="2"/>
  <path d="M1088 530C1088 507 1106 490 1128 490C1151 490 1168 507 1168 530V544H1088V530Z" stroke="#A7F3D0" stroke-width="8"/>
  <rect x="1086" y="540" width="84" height="52" rx="14" fill="#A7F3D0"/>
  <circle cx="1128" cy="564" r="8" fill="#0F172A"/>
  <text x="1210" y="546" fill="#F8FAFC" font-family="Inter, system-ui, sans-serif" font-size="26" font-weight="700">Private access</text>
  <text x="1210" y="584" fill="#A5B4CC" font-family="Inter, system-ui, sans-serif" font-size="22" font-weight="600">exclusive terms by buyer</text>

  <rect x="156" y="676" width="1286" height="156" rx="28" fill="#F8FAFC"/>
  <text x="206" y="740" fill="#0F172A" font-family="Inter, system-ui, sans-serif" font-size="32" font-weight="700">One buyer, one facility, one managed workstream</text>
  <text x="206" y="786" fill="#475569" font-family="Inter, system-ui, sans-serif" font-size="28" font-weight="500">Use this when the site is not yet in the catalog, the work needs new capture, or the access and model/data terms need to stay tightly controlled.</text>

  <defs>
    <linearGradient id="bg" x1="42" y1="42" x2="1558" y2="958" gradientUnits="userSpaceOnUse">
      <stop stop-color="#0F172A"/>
      <stop offset="1" stop-color="#172554"/>
    </linearGradient>
    <linearGradient id="imageShade" x1="178" y1="242" x2="894" y2="618" gradientUnits="userSpaceOnUse">
      <stop stop-color="#0F172A" stop-opacity="0.08"/>
      <stop offset="1" stop-color="#0F172A" stop-opacity="0.26"/>
    </linearGradient>
  </defs>
</svg>
