<svg width="1200" height="720" viewBox="0 0 1200 720" fill="none" xmlns="http://www.w3.org/2000/svg">
  <rect width="1200" height="720" rx="36" fill="#F5F7F4"/>
  <rect x="34" y="34" width="1132" height="652" rx="28" fill="#FFFFFF" stroke="#D8E0D7"/>
  <rect x="70" y="70" width="1060" height="54" rx="18" fill="#0F172A"/>
  <rect x="92" y="88" width="228" height="18" rx="9" fill="#F8FAFC"/>
  <rect x="946" y="86" width="152" height="22" rx="11" fill="#D1FAE5"/>
  <rect x="86" y="156" width="692" height="456" rx="24" fill="#E2F5E9" stroke="#C5DFCB"/>
  <rect x="112" y="182" width="640" height="362" rx="20" fill="#154C3B"/>
  <path d="M112 422C210 368 294 352 404 376C510 398 556 416 640 392C679 381 709 365 752 338V544H112V422Z" fill="#2B7B60"/>
  <rect x="168" y="248" width="124" height="182" rx="14" fill="#F8FAFC" opacity="0.92"/>
  <rect x="330" y="220" width="102" height="228" rx="14" fill="#DDEFE6" opacity="0.88"/>
  <rect x="470" y="276" width="138" height="168" rx="14" fill="#F8FAFC" opacity="0.9"/>
  <rect x="644" y="236" width="62" height="204" rx="12" fill="#C6E6D4" opacity="0.95"/>
  <circle cx="522" cy="470" r="26" fill="#2563EB"/>
  <path d="M516 470L521 475L531 464" stroke="#F8FAFC" stroke-width="4" stroke-linecap="round" stroke-linejoin="round"/>
  <rect x="112" y="560" width="178" height="26" rx="13" fill="#F8FAFC"/>
  <rect x="302" y="560" width="126" height="26" rx="13" fill="#D1FAE5"/>
  <rect x="796" y="156" width="298" height="220" rx="24" fill="#F8FAFC" stroke="#D8E0D7"/>
  <rect x="824" y="186" width="132" height="18" rx="9" fill="#0F172A"/>
  <rect x="824" y="222" width="214" height="14" rx="7" fill="#C7D2FE"/>
  <rect x="824" y="248" width="236" height="14" rx="7" fill="#E2E8F0"/>
  <rect x="824" y="282" width="242" height="62" rx="16" fill="#EEF2FF"/>
  <rect x="840" y="300" width="92" height="12" rx="6" fill="#3730A3"/>
  <rect x="840" y="322" width="196" height="10" rx="5" fill="#94A3B8"/>
  <rect x="796" y="394" width="298" height="218" rx="24" fill="#0F172A"/>
  <rect x="824" y="424" width="132" height="18" rx="9" fill="#F8FAFC"/>
  <rect x="824" y="462" width="236" height="48" rx="16" fill="#172554"/>
  <rect x="840" y="478" width="122" height="12" rx="6" fill="#BFDBFE"/>
  <rect x="824" y="528" width="116" height="44" rx="14" fill="#D1FAE5"/>
  <rect x="952" y="528" width="116" height="44" rx="14" fill="#FEF3C7"/>
</svg>
