<svg xmlns="http://www.w3.org/2000/svg" viewBox="0 0 64 64" role="img" aria-label="Blueprint">
  <rect width="64" height="64" rx="10" fill="#0d0d0b"/>
  <rect x="8" y="9" width="14" height="20" fill="#f6f1e8"/>
  <rect x="8" y="36" width="14" height="19" fill="#f6f1e8"/>
  <path fill="#f6f1e8" fill-rule="evenodd" d="M25 9h18.2C52 9 58 14 58 21.8c0 5.1-2.7 8.9-7.4 10.9 5.5 1.9 8.6 6.1 8.6 12.1C59.2 53.2 52.9 58 43 58H25V9Zm11.2 9.6v10.8h6c3.3 0 5.2-2 5.2-5.4s-1.9-5.4-5.2-5.4h-6Zm0 20v10.8h6.8c3.5 0 5.6-1.9 5.6-5.4 0-3.4-2.1-5.4-5.6-5.4h-6.8Z"/>
</svg>
